<svg width="642" height="642" viewBox="0 0 642 642" fill="none" xmlns="http://www.w3.org/2000/svg">
<path d="M99.0541 275.242C105.737 243.22 119.266 213.023 138.713 186.72C158.161 160.418 183.067 138.632 211.723 122.857C240.379 107.082 272.108 97.691 304.734 95.3281C337.36 92.9652 370.111 97.6861 400.742 109.167L390.737 135.86C363.955 125.821 335.32 121.694 306.794 123.76C278.267 125.826 250.525 134.037 225.47 147.829C200.415 161.622 178.638 180.67 161.635 203.668C144.631 226.665 132.802 253.068 126.959 281.066L99.0541 275.242Z" fill="#D7A5FC"/>
<path d="M524.757 421.923C547.532 375.388 553.693 322.46 542.214 271.938C530.735 221.417 502.309 176.347 461.662 144.222L444.943 165.376C480.759 193.682 505.807 233.396 515.921 277.912C526.036 322.429 520.608 369.067 500.539 410.07L524.757 421.923Z" fill="#D7A5FC"/>
<path d="M154.065 475.087C175.42 498.236 201.363 516.685 230.24 529.259C259.117 541.833 290.295 548.255 321.791 548.118C353.286 547.981 384.408 541.287 413.174 528.462C441.94 515.637 467.721 496.963 488.874 473.629L468.898 455.52C450.259 476.081 427.542 492.536 402.195 503.836C376.848 515.136 349.425 521.035 321.673 521.156C293.921 521.276 266.448 515.617 241.004 504.538C215.559 493.459 192.7 477.203 173.882 456.805L154.065 475.087Z" fill="#D7A5FC"/>
</svg>
