<svg width="971" height="971" viewBox="0 0 971 971" fill="none" xmlns="http://www.w3.org/2000/svg">
<mask id="path-1-inside-1_101_2" fill="white">
<path d="M143.899 524.931C135.867 454.933 149.561 384.159 183.124 322.209C216.686 260.259 268.493 210.133 331.515 178.63L371.239 258.098C324.522 281.451 286.119 318.608 261.24 364.53C236.361 410.452 226.209 462.915 232.163 514.803L143.899 524.931Z"/>
</mask>
<path d="M143.899 524.931C135.867 454.933 149.561 384.159 183.124 322.209C216.686 260.259 268.493 210.133 331.515 178.63L371.239 258.098C324.522 281.451 286.119 318.608 261.24 364.53C236.361 410.452 226.209 462.915 232.163 514.803L143.899 524.931Z" stroke="#D1B5FF" stroke-width="2" mask="url(#path-1-inside-1_101_2)"/>
<mask id="path-2-inside-2_101_2" fill="white">
<path d="M460.398 142.907C507.566 139.56 554.917 145.99 599.484 161.796C644.051 177.602 684.873 202.441 719.392 234.759C753.912 267.076 781.385 306.175 800.09 349.605C818.794 393.035 828.328 439.86 828.093 487.146L739.251 486.704C739.425 451.652 732.358 416.942 718.492 384.748C704.627 352.554 684.262 323.571 658.673 299.615C633.085 275.659 602.824 257.246 569.788 245.529C536.751 233.813 501.651 229.046 466.687 231.527L460.398 142.907Z"/>
</mask>
<path d="M460.398 142.907C507.566 139.56 554.917 145.99 599.484 161.796C644.051 177.602 684.873 202.441 719.392 234.759C753.912 267.076 781.385 306.175 800.09 349.605C818.794 393.035 828.328 439.86 828.093 487.146L739.251 486.704C739.425 451.652 732.358 416.942 718.492 384.748C704.627 352.554 684.262 323.571 658.673 299.615C633.085 275.659 602.824 257.246 569.788 245.529C536.751 233.813 501.651 229.046 466.687 231.527L460.398 142.907Z" stroke="#D1B5FF" stroke-width="2" mask="url(#path-2-inside-2_101_2)"/>
<mask id="path-3-inside-3_101_2" fill="white">
<path d="M811.517 593.347C795.192 642.699 767.875 687.7 731.627 724.958C695.378 762.215 651.145 790.758 602.26 808.432C553.376 826.107 501.116 832.453 449.423 826.992C397.729 821.531 347.949 804.405 303.837 776.905L350.837 701.512C383.537 721.897 420.437 734.592 458.757 738.64C497.076 742.689 535.815 737.984 572.052 724.882C608.289 711.781 641.078 690.623 667.948 663.005C694.818 635.386 715.067 602.028 727.169 565.445L811.517 593.347Z"/>
</mask>
<path d="M811.517 593.347C795.192 642.699 767.875 687.7 731.627 724.958C695.378 762.215 651.145 790.758 602.26 808.432C553.376 826.107 501.116 832.453 449.423 826.992C397.729 821.531 347.949 804.405 303.837 776.905L350.837 701.512C383.537 721.897 420.437 734.592 458.757 738.64C497.076 742.689 535.815 737.984 572.052 724.882C608.289 711.781 641.078 690.623 667.948 663.005C694.818 635.386 715.067 602.028 727.169 565.445L811.517 593.347Z" stroke="#D1B5FF" stroke-width="2" mask="url(#path-3-inside-3_101_2)"/>
</svg>
