<svg width="296" height="297" viewBox="0 0 296 297" fill="none" xmlns="http://www.w3.org/2000/svg">
<path d="M8.46505 195.434C2.3456 177.03 -0.10377 157.595 1.2568 138.24C2.61736 118.885 7.76122 99.9891 16.3947 82.6303C25.0281 65.2715 36.9821 49.7902 51.5741 37.0702C66.166 24.3503 83.1102 14.6408 101.439 8.49617L102.896 12.877C85.1398 18.8295 68.7252 28.2355 54.5894 40.5578C40.4535 52.8802 28.8732 67.8776 20.5096 84.6938C12.1461 101.51 7.163 119.816 5.84496 138.566C4.52692 157.315 6.89973 176.142 12.8279 193.972L8.46505 195.434Z" fill="#CB8CF2"/>
<path d="M148.038 0.891602C180.044 0.891602 211.177 11.3701 236.718 30.7385C262.259 50.1069 280.814 77.3089 289.57 108.221C298.327 139.132 296.807 172.068 285.242 202.034C273.676 232 252.696 257.363 225.481 274.277L223.06 270.35C249.424 253.965 269.749 229.395 280.953 200.365C292.157 171.336 293.629 139.43 285.146 109.484C276.664 79.5387 258.688 53.187 233.946 34.424C209.204 15.6611 179.044 5.5101 148.038 5.5101V0.891602Z" fill="#CB8CF2"/>
<path d="M174.643 293.96C148.697 298.75 121.945 296.447 97.1887 287.293C72.4326 278.139 50.5827 262.47 33.9267 241.927L37.4937 239.011C53.629 258.912 74.7959 274.091 98.7781 282.959C122.76 291.827 148.676 294.058 173.811 289.418L174.643 293.96Z" fill="#CB8CF2"/>
</svg>
