<svg width="357" height="356" viewBox="0 0 357 356" fill="none" xmlns="http://www.w3.org/2000/svg">
<path d="M218.858 350.601C184.728 358.758 148.946 356.612 116.037 344.432C83.1269 332.253 54.5678 310.588 33.9709 282.178C13.3739 253.768 1.66418 219.888 0.322382 184.822C-1.01942 149.757 8.067 115.081 26.4326 85.1799L36.6989 91.4855C19.5804 119.356 11.111 151.677 12.3617 184.362C13.6124 217.046 24.527 248.625 43.7253 275.106C62.9236 301.587 89.5433 321.781 120.218 333.133C150.893 344.485 184.245 346.486 216.058 338.883L218.858 350.601Z" fill="#C98BF0"/>
<path d="M64.789 43.8235C97.5886 15.2703 139.692 -0.104506 183.045 0.640457C226.398 1.38542 267.956 18.1979 299.768 47.8613L291.638 56.7012C261.985 29.052 223.249 13.3812 182.841 12.6869C142.432 11.9925 103.187 26.3233 72.6152 52.9375L64.789 43.8235Z" fill="#C98BF0"/>
<path d="M331.657 87.6293C351.645 121.612 359.8 161.338 354.831 200.515C349.861 239.691 332.052 276.079 304.223 303.913L295.79 295.365C321.729 269.421 338.329 235.505 342.961 198.988C347.593 162.472 339.991 125.444 321.361 93.7686L331.657 87.6293Z" fill="#C98BF0"/>
</svg>
