<svg width="180" height="180" viewBox="0 0 180 180" fill="none" xmlns="http://www.w3.org/2000/svg">
<mask id="path-1-inside-1_2_114" fill="white">
<path d="M26.6753 97.3096C25.1864 84.3337 27.725 71.2138 33.9467 59.7298C40.1684 48.2459 49.772 38.9537 61.4548 33.1138L68.8186 47.8452C60.1584 52.1742 53.0395 59.0623 48.4275 67.5751C43.8155 76.0879 41.9337 85.8134 43.0373 95.4321L26.6753 97.3096Z"/>
</mask>
<path d="M26.6753 97.3096C25.1864 84.3337 27.725 71.2138 33.9467 59.7298C40.1684 48.2459 49.772 38.9537 61.4548 33.1138L68.8186 47.8452C60.1584 52.1742 53.0395 59.0623 48.4275 67.5751C43.8155 76.0879 41.9337 85.8134 43.0373 95.4321L26.6753 97.3096Z" stroke="#D1B5FF" stroke-width="2" mask="url(#path-1-inside-1_2_114)"/>
<mask id="path-2-inside-2_2_114" fill="white">
<path d="M85.3467 26.4915C94.0905 25.871 102.868 27.0631 111.13 29.9931C119.392 32.923 126.959 37.5277 133.358 43.5186C139.757 49.5095 144.85 56.7575 148.317 64.8083C151.785 72.8592 153.552 81.5394 153.508 90.3051L137.039 90.2232C137.072 83.7254 135.762 77.2909 133.191 71.323C130.621 65.3551 126.846 59.9823 122.102 55.5414C117.359 51.1005 111.749 47.6871 105.625 45.5152C99.5008 43.3433 92.9941 42.4596 86.5125 42.9196L85.3467 26.4915Z"/>
</mask>
<path d="M85.3467 26.4915C94.0905 25.871 102.868 27.0631 111.13 29.9931C119.392 32.923 126.959 37.5277 133.358 43.5186C139.757 49.5095 144.85 56.7575 148.317 64.8083C151.785 72.8592 153.552 81.5394 153.508 90.3051L137.039 90.2232C137.072 83.7254 135.762 77.2909 133.191 71.323C130.621 65.3551 126.846 59.9823 122.102 55.5414C117.359 51.1005 111.749 47.6871 105.625 45.5152C99.5008 43.3433 92.9941 42.4596 86.5125 42.9196L85.3467 26.4915Z" stroke="#D1B5FF" stroke-width="2" mask="url(#path-2-inside-2_2_114)"/>
<mask id="path-3-inside-3_2_114" fill="white">
<path d="M150.436 109.992C147.409 119.141 142.346 127.483 135.626 134.39C128.906 141.296 120.707 146.587 111.644 149.864C102.583 153.14 92.8949 154.317 83.3121 153.304C73.7293 152.292 64.5014 149.117 56.3241 144.02L65.0368 130.043C71.0985 133.822 77.9389 136.176 85.0424 136.926C92.1459 137.677 99.3271 136.805 106.045 134.376C112.762 131.947 118.84 128.025 123.821 122.905C128.803 117.785 132.556 111.602 134.8 104.82L150.436 109.992Z"/>
</mask>
<path d="M150.436 109.992C147.409 119.141 142.346 127.483 135.626 134.39C128.906 141.296 120.707 146.587 111.644 149.864C102.583 153.14 92.8949 154.317 83.3121 153.304C73.7293 152.292 64.5014 149.117 56.3241 144.02L65.0368 130.043C71.0985 133.822 77.9389 136.176 85.0424 136.926C92.1459 137.677 99.3271 136.805 106.045 134.376C112.762 131.947 118.84 128.025 123.821 122.905C128.803 117.785 132.556 111.602 134.8 104.82L150.436 109.992Z" stroke="#D1B5FF" stroke-width="2" mask="url(#path-3-inside-3_2_114)"/>
<path d="M48.5786 81.4249C49.8174 75.4889 52.3254 69.891 55.9304 65.0151C59.5355 60.1392 64.1525 56.1007 69.4647 53.1764C74.7769 50.2521 80.6587 48.5112 86.7067 48.0732C92.7548 47.6352 98.8261 48.5103 104.504 50.6387L102.65 55.5868C97.6849 53.726 92.3765 52.9608 87.0885 53.3438C81.8004 53.7268 76.6577 55.2488 72.013 57.8057C67.3684 60.3625 63.3316 63.8936 60.1795 68.1568C57.0274 72.4199 54.8346 77.3144 53.7515 82.5045L48.5786 81.4249Z" fill="#D7A5FC"/>
<path d="M127.494 108.616C131.716 99.9897 132.858 90.1781 130.73 80.8126C128.602 71.4471 123.332 63.0922 115.797 57.1371L112.698 61.0585C119.337 66.3058 123.981 73.6677 125.856 81.92C127.731 90.1723 126.724 98.8178 123.004 106.419L127.494 108.616Z" fill="#D7A5FC"/>
<path d="M58.7761 118.471C62.735 122.763 67.5441 126.183 72.8972 128.513C78.2502 130.844 84.03 132.035 89.8685 132.009C95.707 131.984 101.476 130.743 106.809 128.366C112.141 125.988 116.92 122.527 120.842 118.201L117.139 114.844C113.683 118.656 109.472 121.706 104.774 123.801C100.075 125.895 94.9913 126.989 89.8467 127.011C84.7022 127.034 79.6094 125.985 74.8925 123.931C70.1757 121.877 65.9382 118.863 62.4499 115.082L58.7761 118.471Z" fill="#D7A5FC"/>
<path d="M97.2991 122.257C90.9427 123.776 84.2786 123.376 78.1495 121.108C72.0204 118.84 66.7015 114.805 62.8655 109.514C59.0295 104.223 56.8486 97.9129 56.5988 91.3822C56.3489 84.8516 58.0411 78.3936 61.4616 72.8247L63.3736 73.9991C60.1854 79.1898 58.608 85.2093 58.841 91.2964C59.0739 97.3836 61.1066 103.265 64.6822 108.197C68.2577 113.129 73.2154 116.89 78.9283 119.004C84.6412 121.118 90.8528 121.491 96.7775 120.075L97.2991 122.257Z" fill="#C98BF0"/>
<path d="M68.0065 65.1225C74.1571 59.8047 82.0524 56.9413 90.182 57.08C98.3115 57.2187 106.105 60.3499 112.07 65.8745L110.545 67.5208C104.985 62.3714 97.7212 59.4529 90.1437 59.3235C82.5662 59.1942 75.207 61.8632 69.4741 66.8199L68.0065 65.1225Z" fill="#C98BF0"/>
<path d="M118.05 73.2809C121.798 79.6099 123.327 87.0085 122.395 94.3048C121.464 101.601 118.124 108.378 112.905 113.562L111.324 111.97C116.188 107.138 119.301 100.821 120.17 94.0206C121.038 87.2197 119.613 80.3235 116.119 74.4243L118.05 73.2809Z" fill="#C98BF0"/>
<path d="M63.974 98.6805C62.8497 95.3129 62.3996 91.7567 62.6496 88.2152C62.8996 84.6736 63.8447 81.216 65.4309 78.0397C67.0172 74.8634 69.2135 72.0306 71.8946 69.7031C74.5756 67.3756 77.6888 65.599 81.0564 64.4746L81.3241 65.2762C78.0617 66.3654 75.0458 68.0865 72.4486 70.3413C69.8513 72.596 67.7237 75.3402 66.187 78.4172C64.6503 81.4943 63.7348 84.8438 63.4926 88.2747C63.2504 91.7055 63.6864 95.1505 64.7756 98.4129L63.974 98.6805Z" fill="#CB8CF2"/>
<path d="M89.6181 63.0831C95.4987 63.0831 101.219 65.0005 105.912 68.5445C110.604 72.0885 114.013 77.066 115.622 82.7222C117.231 88.3784 116.952 94.4049 114.827 99.8881C112.702 105.371 108.847 110.012 103.847 113.107L103.402 112.389C108.246 109.39 111.98 104.895 114.039 99.5828C116.097 94.271 116.368 88.4328 114.809 82.9534C113.251 77.474 109.948 72.6521 105.402 69.2189C100.856 65.7856 95.3149 63.9282 89.6181 63.9282V63.0831Z" fill="#CB8CF2"/>
<path d="M94.5064 116.709C89.7391 117.585 84.824 117.164 80.2755 115.489C75.7269 113.814 71.7124 110.947 68.6522 107.188L69.3075 106.654C72.2721 110.296 76.1612 113.073 80.5675 114.696C84.9738 116.318 89.7354 116.727 94.3536 115.878L94.5064 116.709Z" fill="#CB8CF2"/>
</svg>
