<svg width="48" height="48" viewBox="0 0 48 48" fill="none" xmlns="http://www.w3.org/2000/svg">
<path d="M10 36V24V36ZM10 26H6C5.46957 26 4.96086 26.2107 4.58579 26.5858C4.21071 26.9609 4 27.4696 4 28V36C4 36.5304 4.21071 37.0391 4.58579 37.4142C4.96086 37.7893 5.46957 38 6 38H10V26Z" stroke="white" stroke-width="4" stroke-linecap="round" stroke-linejoin="round"/>
<path d="M38 26V38M38 24V36V24ZM38 26H42C42.5304 26 43.0391 26.2107 43.4142 26.5858C43.7893 26.9609 44 27.4696 44 28V36C44 36.5304 43.7893 37.0391 43.4142 37.4142C43.0391 37.7893 42.5304 38 42 38H38V26ZM10 36V24C10 16.268 16.268 10 24 10C31.732 10 38 16.268 38 24V36H10ZM10 26V38V26Z" stroke="white" stroke-width="4" stroke-linecap="round" stroke-linejoin="round"/>
<path d="M16 32H20L22 26L26 38L28 32H32" stroke="white" stroke-width="4" stroke-linecap="round" stroke-linejoin="round"/>
</svg>
